<?xml version="1.0" standalone="no"?>
<!DOCTYPE svg PUBLIC "-//W3C//DTD SVG 20010904//EN"
 "http://www.w3.org/TR/2001/REC-SVG-20010904/DTD/svg10.dtd">
<svg version="1.0" xmlns="http://www.w3.org/2000/svg"
 width="700.000000pt" height="700.000000pt" viewBox="0 0 700.000000 700.000000"
 preserveAspectRatio="xMidYMid meet">
<metadata>
Created by potrace 1.11, written by Peter Selinger 2001-2013
</metadata>
<g transform="translate(0.000000,700.000000) scale(0.100000,-0.100000)"
fill="#000000" stroke="none">
<path d="M3100 6988 c-45 -18 -65 -58 -61 -123 1 -28 40 -70 76 -82 l30 -10 0
-164 0 -164 -143 -2 c-79 -1 -146 -4 -149 -6 -2 -3 -5 -526 -6 -1164 l-2
-1158 -42 -6 c-81 -10 -123 -85 -89 -156 26 -54 60 -63 249 -63 l163 0 0 -200
c-1 -125 3 -201 9 -203 6 -2 206 -3 445 -3 l435 1 1 190 c1 105 2 196 3 203 1
9 42 12 169 12 149 0 170 2 200 20 95 58 53 198 -61 203 l-32 2 0 158 -1 157
186 0 c217 0 279 -9 375 -55 152 -73 260 -211 301 -385 4 -14 7 -276 8 -582
l2 -558 -1421 0 c-1402 0 -1420 0 -1453 -20 -62 -38 -68 -122 -12 -172 26 -24
39 -28 93 -29 34 0 418 -1 852 -2 l790 -2 1 -697 0 -697 -458 0 c-416 0 -462
-2 -488 -18 -56 -33 -70 -100 -31 -153 36 -50 36 -50 522 -50 l455 0 0 -170
c1 -165 0 -170 -20 -171 -12 -1 -673 -2 -1471 -3 -1437 -3 -1451 -3 -1506 -23
-157 -58 -275 -193 -295 -338 -3 -16 -7 -40 -9 -52 -3 -12 1 -23 7 -25 7 -3
-6 -8 -29 -11 -100 -16 -120 -158 -28 -201 30 -14 306 -16 2807 -16 2680 0
2774 1 2808 19 48 25 68 83 46 134 -28 68 -38 70 -309 71 l-242 1 -2 371 -1
372 31 7 c18 4 40 9 50 11 45 10 170 69 224 106 377 260 427 800 105 1125 -87
88 -217 164 -332 193 -25 6 -52 13 -61 16 -15 4 -17 70 -18 777 0 425 -3 787
-5 805 -15 100 -19 121 -31 167 -56 209 -151 372 -304 525 -178 178 -381 280
-646 326 -22 4 -138 8 -257 10 -120 1 -221 5 -225 7 -5 3 -8 314 -8 692 0 378
-3 691 -6 697 -4 6 -65 11 -150 12 l-143 1 -1 164 c0 137 2 164 15 168 81 25
117 96 84 164 -29 58 -40 59 -526 58 -270 -1 -453 -5 -468 -11z"/>
</g>
</svg>
